<svg width="14" height="14" viewBox="0 0 14 14" fill="none" xmlns="http://www.w3.org/2000/svg">
<path d="M4.0293 4.5C5.13387 4.5 6.0293 3.60457 6.0293 2.5C6.0293 1.39543 5.13387 0.5 4.0293 0.5C2.92473 0.5 2.0293 1.39543 2.0293 2.5C2.0293 3.60457 2.92473 4.5 4.0293 4.5Z" stroke="white" stroke-linecap="round" stroke-linejoin="round"/>
<path d="M5.71568 10.5245L5.34375 13.5H2.72656L2.22656 9.5H0.529297V8C0.529297 7.07174 0.898046 6.1815 1.55442 5.52513C2.2108 4.86875 3.10104 4.5 4.0293 4.5C4.95755 4.5 5.84779 4.86875 6.50417 5.52513C7.00903 6.02998 7.34372 6.67319 7.47134 7.36564" stroke="white" stroke-linecap="round" stroke-linejoin="round"/>
<path d="M7.29492 9.9705C7.29492 9.48319 7.68997 9.08813 8.17728 9.08813H12.5891C13.0764 9.08813 13.4714 9.48319 13.4714 9.9705V12.6176C13.4714 13.1049 13.0764 13.4999 12.5891 13.4999H8.17728C7.68997 13.4999 7.29492 13.1049 7.29492 12.6176V9.9705Z" stroke="white" stroke-linecap="round" stroke-linejoin="round"/>
<path d="M9.17578 9.08818V8.43726C9.17578 7.88497 9.6235 7.43726 10.1758 7.43726H10.5884C11.1406 7.43726 11.5884 7.88497 11.5884 8.43726V9.08818" stroke="white" stroke-linecap="round" stroke-linejoin="round"/>
</svg>
